<svg id="Warstwa_1" data-name="Warstwa 1" xmlns="http://www.w3.org/2000/svg" viewBox="0 0 932.58 1057.01"><defs><style>.cls-1{fill:#cdcab9;}</style></defs><title>filters</title><path class="cls-1" d="M927.32,1139.22a47.49,47.49,0,0,1,9.83,27.66c.6,141.2.4,435.28.4,445.17,8.08-5.5,111.91-83.46,160.19-119,9.89-7.28,13.33-15.07,13.28-27.14q-.68-149.73.16-299.48c.06-8.88,3.68-19.47,9.26-26.33,119.67-147.13,366-449,369.85-454.22H557.71C562.3,691.83,808,992.45,927.32,1139.22Z" transform="translate(-557.71 -555.04)"/><path class="cls-1" d="M557.71,590v31.49h932.58V590a35,35,0,0,0-35-35H592.7A35,35,0,0,0,557.71,590Z" transform="translate(-557.71 -555.04)"/></svg>