<svg id="Warstwa_1" data-name="Warstwa 1" xmlns="http://www.w3.org/2000/svg" viewBox="0 0 657.47 657.47"><defs><style>.cls-1{fill:#6fc1e4;}</style></defs><title>filters_amount</title><path class="cls-1" d="M2107.56-304.1H1724c-75.52,0-137-61.44-137-136.95V-824.62c0-75.52,61.43-137,137-137h383.57c75.51,0,137,61.43,137,137V-441C2244.51-365.54,2183.07-304.1,2107.56-304.1Zm-371-584.48A76.66,76.66,0,0,0,1660-812v358.33a76.66,76.66,0,0,0,76.58,76.58h358.33a76.67,76.67,0,0,0,76.58-76.58V-812a76.67,76.67,0,0,0-76.58-76.58Z" transform="translate(-1587.04 961.57)"/></svg>