<svg width="280" height="280" viewBox="0 0 280 280" fill="none" xmlns="http://www.w3.org/2000/svg">
<path d="M0 140C0 62.6801 62.6801 0 140 0C217.32 0 280 62.6801 280 140C280 217.32 217.32 280 140 280C62.6801 280 0 217.32 0 140Z" fill="#131313"/>
<path d="M140 0C62.68 0 0 62.68 0 140C0 217.32 62.68 280 140 280C217.32 280 280 217.32 280 140C280 62.68 217.32 0 140 0ZM151.47 99.43L156.91 93.08L175.78 71.08H192.85L156.75 113.11C156.75 113.11 152.73 108.35 151.36 106.76C149.56 104.63 149.62 101.45 151.47 99.43V99.43ZM106.12 71.08C106.12 71.08 136.35 107.26 147.29 118.48C149.03 120.23 148.72 122.53 147.13 124.39C141.32 131.23 141.16 131.34 141.16 131.34L89.15 71.08H106.12V71.08ZM130.7 179.67L125.26 186.02L106.39 208.02H89.32L125.42 165.99C125.42 165.99 129.44 170.75 130.81 172.34C132.61 174.47 132.55 177.65 130.7 179.67V179.67ZM131.39 142.73C116.7 159.75 75.37 208.03 75.37 208.03H57.03L113.27 142.9C115.07 140.82 115.07 137.7 113.27 135.68L57.45 71.08H75.1L131.23 136.21C132.66 138.13 132.92 140.92 131.39 142.72V142.73ZM175.79 208.03L137.68 163.59L135.78 161.18C133.98 159.1 134.04 155.87 135.89 153.84L206.92 71.09H224.52L153.06 152.75C151.21 154.78 151.16 158 152.95 160.08L194.17 208.03H175.78H175.79ZM208.24 208.03C208.24 208.03 177.48 172.12 167.22 160.14C166.06 158.77 165.63 156.91 166.06 155.21C166.38 154.28 167.06 153.24 167.7 152.53L172.46 147.28L224.94 208.03H208.24V208.03Z" fill="url(#paint0_radial_1059_2120)"/>
<path d="M140 0C62.68 0 0 62.68 0 140C0 217.32 62.68 280 140 280C217.32 280 280 217.32 280 140C280 62.68 217.32 0 140 0ZM151.47 99.43L156.91 93.08L175.78 71.08H192.85L156.75 113.11C156.75 113.11 152.73 108.35 151.36 106.76C149.56 104.63 149.62 101.45 151.47 99.43V99.43ZM106.12 71.08C106.12 71.08 136.35 107.26 147.29 118.48C149.03 120.23 148.72 122.53 147.13 124.39C141.32 131.23 141.16 131.34 141.16 131.34L89.15 71.08H106.12V71.08ZM130.7 179.67L125.26 186.02L106.39 208.02H89.32L125.42 165.99C125.42 165.99 129.44 170.75 130.81 172.34C132.61 174.47 132.55 177.65 130.7 179.67V179.67ZM131.39 142.73C116.7 159.75 75.37 208.03 75.37 208.03H57.03L113.27 142.9C115.07 140.82 115.07 137.7 113.27 135.68L57.45 71.08H75.1L131.23 136.21C132.66 138.13 132.92 140.92 131.39 142.72V142.73ZM175.79 208.03L137.68 163.59L135.78 161.18C133.98 159.1 134.04 155.87 135.89 153.84L206.92 71.09H224.52L153.06 152.75C151.21 154.78 151.16 158 152.95 160.08L194.17 208.03H175.78H175.79ZM208.24 208.03C208.24 208.03 177.48 172.12 167.22 160.14C166.06 158.77 165.63 156.91 166.06 155.21C166.38 154.28 167.06 153.24 167.7 152.53L172.46 147.28L224.94 208.03H208.24V208.03Z" fill="url(#paint1_radial_1059_2120)"/>
<defs>
<radialGradient id="paint0_radial_1059_2120" cx="0" cy="0" r="1" gradientUnits="userSpaceOnUse" gradientTransform="translate(74.3198 73.9815) rotate(44.9817) scale(290.881 616.893)">
<stop stop-color="#76ECF8"/>
<stop offset="0.317708" stop-color="#A6AEEC"/>
<stop offset="0.734375" stop-color="#ECBEE1"/>
</radialGradient>
<radialGradient id="paint1_radial_1059_2120" cx="0" cy="0" r="1" gradientUnits="userSpaceOnUse" gradientTransform="translate(152.143 262.62) rotate(84.265) scale(150.664 288.222)">
<stop stop-color="#FCF5EE"/>
<stop offset="0.715135" stop-color="#ECBEE1" stop-opacity="0"/>
</radialGradient>
</defs>
</svg>
