<svg id="Warstwa_1" data-name="Warstwa 1" xmlns="http://www.w3.org/2000/svg" viewBox="0 0 334 377.37"><defs><style>.cls-1{fill:#87151b;}</style></defs><title>logout</title><path class="cls-1" d="M1207.79,104.88a17.22,17.22,0,0,0-24.35,24.36l29,29H1104.81a17.27,17.27,0,0,0-17.22,17.22h0a17.27,17.27,0,0,0,17.22,17.22h107.45l-28.82,28.82a17.22,17.22,0,0,0,24.35,24.36l71.21-70.5Z" transform="translate(-945 7.28)"/><path class="cls-1" d="M1147.58,124V16.65a23.92,23.92,0,0,0-23.92-23.93H968.92A23.92,23.92,0,0,0,945,16.65V326.87a24,24,0,0,0,16.2,22.64c8.54,2.92,17.12,5.72,25.52,9l27.4,10.71a25.3,25.3,0,0,0,31.09-18.44h78.45a23.92,23.92,0,0,0,23.92-23.92V226.94h-29.9v93.95h-71.76v-259A25.3,25.3,0,0,0,1031.38,39L996.57,22.63h121.11V124Z" transform="translate(-945 7.28)"/></svg>