<svg width="24" height="24" viewBox="0 0 24 24" fill="none" xmlns="http://www.w3.org/2000/svg">
<circle cx="12" cy="12" r="12" fill="#2775CA"/>
<g clip-path="url(#clip0_1_37)">
<path d="M12.7525 7.15394C12.7525 7.33271 12.7525 7.51631 12.7525 7.69146C12.7525 7.74219 12.7689 7.7579 12.8232 7.76393C13.2067 7.80244 13.5749 7.92881 13.8965 8.13235C14.1771 8.30493 14.4182 8.53037 14.6048 8.79493C14.7915 9.05949 14.92 9.35764 14.9823 9.67122C14.9988 9.72384 15.0017 9.77951 14.9907 9.83343C14.9798 9.88736 14.9553 9.93794 14.9194 9.98082C14.8836 10.0237 14.8373 10.0576 14.7847 10.0796C14.7321 10.1017 14.6747 10.1112 14.6174 10.1073C14.3649 10.1 14.1124 10.1073 13.8523 10.1073C13.7681 10.1106 13.6851 10.087 13.6165 10.0402C13.5479 9.99341 13.4976 9.92604 13.4735 9.84878C13.4161 9.68023 13.3309 9.52158 13.221 9.3789C13.0275 9.13954 12.7473 8.97833 12.4356 8.92715C12.0085 8.83677 11.5645 8.84964 11.1439 8.96459C11.0085 8.99846 10.8815 9.05763 10.7701 9.13869C10.6587 9.21975 10.5652 9.32109 10.4949 9.43689C10.4115 9.57619 10.3679 9.73411 10.3687 9.89468C10.3658 10.0201 10.3751 10.1454 10.3965 10.2691C10.42 10.3907 10.4723 10.5054 10.5493 10.6047C10.6263 10.7039 10.7261 10.785 10.8409 10.8417C11.1056 10.9787 11.3931 11.0706 11.6907 11.1135C12.029 11.1702 12.3699 11.2101 12.7083 11.2644C13.2058 11.3287 13.6897 11.4669 14.1427 11.6739C14.5448 11.8555 14.8703 12.1626 15.0656 12.5448C15.1751 12.7652 15.2427 13.0024 15.2651 13.2454C15.2803 13.4 15.2891 13.5558 15.2891 13.7117C15.2913 14.2251 15.1135 14.7244 14.7841 15.1297C14.4036 15.5983 13.8754 15.9372 13.2778 16.0961C13.1401 16.1371 12.9975 16.1661 12.8561 16.1951C12.8093 16.2048 12.7992 16.2229 12.7992 16.2628C12.7992 16.6058 12.7992 16.9489 12.7992 17.2919C12.8026 17.3505 12.7932 17.409 12.7716 17.4639C12.75 17.5188 12.7167 17.5688 12.6739 17.6107C12.631 17.6526 12.5795 17.6856 12.5226 17.7074C12.4657 17.7293 12.4047 17.7395 12.3434 17.7376C12.1237 17.7376 11.9053 17.7376 11.6856 17.7376C11.6127 17.7376 11.5408 17.7218 11.4753 17.6915C11.4097 17.6612 11.3521 17.6171 11.3068 17.5625C11.254 17.4969 11.2267 17.4157 11.2298 17.333C11.2298 16.9851 11.2298 16.636 11.2298 16.2869C11.2298 16.2241 11.2071 16.206 11.149 16.1975C10.858 16.1557 10.5729 16.0824 10.2992 15.9789C9.67812 15.7657 9.16553 15.3336 8.86616 14.771C8.72695 14.5054 8.63438 14.2198 8.59216 13.9255C8.58286 13.8752 8.58564 13.8235 8.60029 13.7744C8.61493 13.7252 8.64106 13.6799 8.6767 13.6419C8.71233 13.6038 8.75655 13.574 8.80599 13.5547C8.85544 13.5354 8.90882 13.5271 8.96211 13.5305C9.23484 13.5305 9.50883 13.5305 9.78156 13.5305C9.86943 13.5287 9.95506 13.557 10.0229 13.6104C10.0908 13.6638 10.1364 13.7388 10.1515 13.8216C10.1902 14.0081 10.2579 14.1881 10.3523 14.3555C10.5286 14.6435 10.8153 14.8545 11.1515 14.9437C11.3809 15.0068 11.6175 15.0429 11.8561 15.0512C12.1182 15.0698 12.3818 15.0449 12.6351 14.9775C12.8164 14.9349 12.9872 14.8584 13.1375 14.7525C13.2879 14.6466 13.4149 14.5133 13.5114 14.3603C13.6447 14.1284 13.6965 13.8616 13.6591 13.5993C13.6199 13.2007 13.375 12.9603 13.0126 12.8057C12.7246 12.6891 12.4233 12.6052 12.1149 12.5557C11.7778 12.4953 11.4369 12.453 11.1048 12.3926C10.6651 12.3229 10.2392 12.1889 9.84217 11.9952C9.55263 11.8575 9.30363 11.6528 9.11775 11.3997C8.93188 11.1465 8.81502 10.853 8.77777 10.5457C8.74461 10.3388 8.73403 10.1291 8.74621 9.92005C8.77145 9.44611 8.96218 8.99398 9.28787 8.63604C9.70049 8.19262 10.2535 7.89056 10.8624 7.77601C10.947 7.7579 11.0341 7.74219 11.1149 7.73132C11.1641 7.72528 11.1768 7.70475 11.1768 7.66006C11.1768 7.32909 11.1768 6.99691 11.1768 6.66595C11.1776 6.57212 11.2102 6.48107 11.2696 6.4064C11.329 6.33173 11.412 6.27744 11.5063 6.25164C11.5337 6.24578 11.5616 6.24294 11.5896 6.24318H12.2879C12.3478 6.24152 12.4074 6.25156 12.4631 6.27269C12.5188 6.29381 12.5694 6.32559 12.6118 6.36606C12.6542 6.40654 12.6876 6.45486 12.7098 6.50809C12.7321 6.56131 12.7427 6.61831 12.7412 6.67561L12.7525 7.15394Z" fill="white"/>
<path d="M9.75383 4.48591C9.75383 4.62844 9.76393 4.77218 9.75383 4.91351C9.74667 5.0049 9.7104 5.092 9.64989 5.16306C9.58938 5.23412 9.50756 5.28572 9.41544 5.31091C8.82697 5.52022 8.2683 5.79942 7.75257 6.14195C6.76952 6.79103 5.9693 7.66237 5.42302 8.67855C5.06579 9.33469 4.81462 10.0388 4.67807 10.767C4.63002 11.0426 4.59715 11.3204 4.57959 11.5993C4.56191 11.8348 4.55811 12.0711 4.56822 12.3071C4.62997 13.7019 5.12156 15.0481 5.98115 16.1763C6.84073 17.3045 8.0299 18.1642 9.39903 18.6474C9.50198 18.6911 9.5905 18.761 9.65503 18.8493C9.71956 18.9376 9.75765 19.0411 9.76519 19.1487C9.76519 19.3685 9.76519 19.5871 9.76519 19.807C9.76323 19.8688 9.7481 19.9297 9.72075 19.9857C9.6934 20.0418 9.65439 20.092 9.6061 20.1331C9.56597 20.168 9.51632 20.1913 9.4629 20.2003C9.40948 20.2093 9.3545 20.2036 9.30433 20.1839C8.78291 20.0224 8.27617 19.8204 7.78918 19.5799C7.17953 19.2708 6.6089 18.8959 6.08843 18.4626C5.167 17.6993 4.41923 16.7632 3.89145 15.7122C3.5451 15.0361 3.29823 14.3174 3.15787 13.5766C3.09945 13.2858 3.05731 12.9923 3.03161 12.6973C3.00278 12.3307 2.99477 11.963 3.00762 11.5956C3.0409 10.7622 3.20564 9.93839 3.49625 9.15205C3.94914 7.90126 4.69997 6.7684 5.68938 5.84305C6.67879 4.91769 7.87965 4.22521 9.19701 3.82035C9.24878 3.80344 9.29928 3.78049 9.35105 3.76358C9.42917 3.74987 9.50986 3.76278 9.57906 3.80007C9.64826 3.83737 9.70161 3.89669 9.72984 3.96772C9.74973 4.02516 9.76162 4.08486 9.76519 4.14528C9.77151 4.26003 9.76519 4.37478 9.76519 4.48832L9.75383 4.48591Z" fill="white"/>
<path d="M14.2641 4.48005C14.2641 4.62305 14.2541 4.76725 14.2641 4.90904C14.2713 5.00074 14.3075 5.08812 14.3678 5.15941C14.4282 5.2307 14.5098 5.28247 14.6017 5.30774C15.1888 5.51774 15.7461 5.79785 16.2606 6.1415C17.2412 6.7927 18.0395 7.6669 18.5845 8.6864C18.9409 9.34469 19.1914 10.0511 19.3277 10.7817C19.3756 11.0582 19.4084 11.3369 19.4259 11.6167C19.4435 11.853 19.4473 12.0901 19.4372 12.3268C19.3756 13.7262 18.8852 15.0768 18.0277 16.2087C17.1702 17.3405 15.9839 18.2031 14.6181 18.6879C14.5154 18.7318 14.4271 18.8018 14.3627 18.8904C14.2983 18.979 14.2603 19.0829 14.2528 19.1908C14.2528 19.4113 14.2528 19.6307 14.2528 19.8512C14.2548 19.9133 14.2698 19.9743 14.2971 20.0306C14.3244 20.0868 14.3633 20.1371 14.4115 20.1784C14.4515 20.2135 14.5011 20.2368 14.5544 20.2458C14.6077 20.2549 14.6625 20.2491 14.7125 20.2293C15.2327 20.0674 15.7382 19.8647 16.224 19.6234C16.8322 19.3133 17.4015 18.9372 17.9207 18.5025C18.8399 17.7367 19.5859 16.7975 20.1124 15.7431C20.4579 15.0648 20.7042 14.3437 20.8442 13.6005C20.9025 13.3088 20.9445 13.0143 20.9701 12.7183C20.9989 12.3505 21.0069 11.9816 20.9941 11.613C20.9609 10.7769 20.7965 9.95036 20.5066 9.16145C20.0548 7.90657 19.3058 6.77 18.3188 5.84162C17.3318 4.91324 16.1338 4.21849 14.8196 3.81231C14.768 3.79535 14.7176 3.77232 14.6659 3.75535C14.588 3.74159 14.5075 3.75455 14.4385 3.79197C14.3694 3.82939 14.3162 3.8889 14.2881 3.96016C14.2682 4.01779 14.2564 4.07769 14.2528 4.1383C14.2465 4.25343 14.2528 4.36855 14.2528 4.48247L14.2641 4.48005Z" fill="white"/>
</g>
<defs>
<clipPath id="clip0_1_37">
<rect width="18" height="16.5" fill="white" transform="translate(3 3.75)"/>
</clipPath>
</defs>
</svg>
