<svg id="Warstwa_3" data-name="Warstwa 3" xmlns="http://www.w3.org/2000/svg" viewBox="0 0 86.32 114"><defs><style>.cls-1{fill:#64a2bc;}.cls-2{fill:#b4d7d8;}.cls-3{fill:#b0e6ea;opacity:0.31;}</style></defs><title>dao_icon</title><g id="Dao"><path class="cls-1" d="M2070.92,879h-82.29a2,2,0,0,0-2,2V991a2,2,0,0,0,2,1.95h43.2c6.34-2,11.59-15.18,13.77-22.25,0,0,23.3,1.48,27.27-4.25V881A2,2,0,0,0,2070.92,879ZM2012.6,987.13l-7.88-4-7.88,4,1.51-8.4-6.37-6,8.8-1.23,3.94-7.64,3.94,7.64,8.81,1.23-6.38,6Z" transform="translate(-1986.68 -879)"/><path class="cls-1" d="M2073,970.66s-13.44,18-34.82,22.34c0,0,6.59-1.87,11.41-18C2049.59,975,2063.82,976.78,2073,970.66Z" transform="translate(-1986.68 -879)"/><path class="cls-2" d="M1989,881.31h83.83V881a2,2,0,0,0-1.95-2h-82.29a2,2,0,0,0-2,2V991a2,2,0,0,0,2,1.95h.41Z" transform="translate(-1986.68 -879)"/><path class="cls-3" d="M1988.63,992.91h27.6l56.64-71.17V881a2,2,0,0,0-1.95-2h-22.66l-61.58,77.46V991A2,2,0,0,0,1988.63,992.91Zm12.15-21.36,3.94-7.64,3.94,7.64,8.81,1.23-6.38,6,1.51,8.4-7.88-4-7.88,4,1.51-8.4-6.37-6Z" transform="translate(-1986.68 -879)"/></g></svg>