<svg id="Warstwa_3" data-name="Warstwa 3" xmlns="http://www.w3.org/2000/svg" xmlns:xlink="http://www.w3.org/1999/xlink" viewBox="0 0 330.49 96.21"><defs><style>.cls-1{fill:#2d5472;}.cls-2{fill:#64a2bc;}.cls-3{fill:url(#Gradient_bez_nazwy_87);}.cls-4{opacity:0.33;}.cls-5{fill:#a3dbe8;}.cls-6{fill:url(#Gradient_bez_nazwy_54);}.cls-7{opacity:0.64;}.cls-8{fill:#845629;}.cls-9{fill:url(#Gradient_bez_nazwy_54-2);}.cls-10{fill:url(#Gradient_bez_nazwy_54-3);}.cls-11{fill:url(#Gradient_bez_nazwy_54-4);}.cls-12{opacity:0.61;}.cls-13{fill:#c0ebf2;}</style><linearGradient id="Gradient_bez_nazwy_87" x1="1170.24" y1="1078.77" x2="1500.74" y2="1078.77" gradientUnits="userSpaceOnUse"><stop offset="0" stop-color="#22224f" stop-opacity="0.7"/><stop offset="0.29" stop-color="#151b49" stop-opacity="0.44"/><stop offset="0.73" stop-color="#061342" stop-opacity="0.12"/><stop offset="1" stop-color="#00103f" stop-opacity="0"/></linearGradient><radialGradient id="Gradient_bez_nazwy_54" cx="11.01" cy="11.04" r="5" gradientUnits="userSpaceOnUse"><stop offset="0" stop-color="#ebea43"/><stop offset="0.56" stop-color="#ebe843"/><stop offset="0.77" stop-color="#ebe143"/><stop offset="0.93" stop-color="#ebd543"/><stop offset="1" stop-color="#ebcc43"/></radialGradient><radialGradient id="Gradient_bez_nazwy_54-2" cx="11.01" cy="83.8" r="5" xlink:href="#Gradient_bez_nazwy_54"/><radialGradient id="Gradient_bez_nazwy_54-3" cx="319.49" cy="11.04" r="5" xlink:href="#Gradient_bez_nazwy_54"/><radialGradient id="Gradient_bez_nazwy_54-4" cx="319.49" cy="83.8" r="5" xlink:href="#Gradient_bez_nazwy_54"/></defs><title>rum_border</title><path class="cls-1" d="M1494.72,1032.76H1176.26a6,6,0,0,0-6,6v82.78a6,6,0,0,0,6,6h318.46a6,6,0,0,0,6-6v-82.78A6,6,0,0,0,1494.72,1032.76Zm-302.07,6,285.67,0a16.4,16.4,0,0,0,16.4,16.38v18.26a3.76,3.76,0,0,1-3.75,3.76l-314.72,0v-22A16.4,16.4,0,0,0,1192.65,1038.76Zm285.7,82.82-285.71,0a16.39,16.39,0,0,0-16.39-16.38v-22H1491a3.76,3.76,0,0,1,3.76,3.75v18.25A16.4,16.4,0,0,0,1478.35,1121.58Z" transform="translate(-1170.24 -1031.37)"/><path class="cls-2" d="M1494.72,1031.37H1176.26a6,6,0,0,0-6,6v82.78a6,6,0,0,0,6,6h318.46a6,6,0,0,0,6-6v-82.78A6,6,0,0,0,1494.72,1031.37Zm-302.07,6h285.67a16.41,16.41,0,0,0,16.4,16.39V1072a3.75,3.75,0,0,1-3.75,3.76H1176.25v-22A16.41,16.41,0,0,0,1192.65,1037.37Zm285.7,82.81H1192.64a16.4,16.4,0,0,0-16.39-16.39v-22H1491a3.76,3.76,0,0,1,3.76,3.76v18.24A16.4,16.4,0,0,0,1478.35,1120.18Z" transform="translate(-1170.24 -1031.37)"/><path class="cls-3" d="M1494.72,1031.37H1176.26a6,6,0,0,0-6,6v82.78a6,6,0,0,0,6,6h318.46a6,6,0,0,0,6-6v-82.78A6,6,0,0,0,1494.72,1031.37Zm-302.07,6h285.67a16.41,16.41,0,0,0,16.4,16.39V1072a3.75,3.75,0,0,1-3.75,3.76H1176.25v-22A16.41,16.41,0,0,0,1192.65,1037.37Zm285.7,82.81H1192.64a16.4,16.4,0,0,0-16.39-16.39v-22H1491a3.76,3.76,0,0,1,3.76,3.76v18.24A16.4,16.4,0,0,0,1478.35,1120.18Z" transform="translate(-1170.24 -1031.37)"/><g class="cls-4"><path class="cls-5" d="M1208.19,1126.18h57.28q2.05-3,4.08-6h-57.24C1211,1122.18,1209.57,1124.18,1208.19,1126.18Z" transform="translate(-1170.24 -1031.37)"/><path class="cls-5" d="M1236,1081.78h54.54c1-2,2-4,3-6h-54.26Q1237.68,1078.78,1236,1081.78Z" transform="translate(-1170.24 -1031.37)"/><path class="cls-5" d="M1261.47,1031.37q-1.42,3-2.86,6h55.29c1.12-2,2.26-4,3.4-6Z" transform="translate(-1170.24 -1031.37)"/><path class="cls-5" d="M1374.49,1126.18h39.26l3.41-6h-39.38C1376.7,1122.18,1375.6,1124.19,1374.49,1126.18Z" transform="translate(-1170.24 -1031.37)"/><path class="cls-5" d="M1397.31,1081.78h41.57l3.34-6h-41.91C1399.3,1077.78,1398.31,1079.78,1397.31,1081.78Z" transform="translate(-1170.24 -1031.37)"/><path class="cls-5" d="M1422.21,1031.37c-1,2-1.93,4-2.9,6h44.33l.92-1.62c.84-1.47,1.7-2.93,2.55-4.39Z" transform="translate(-1170.24 -1031.37)"/></g><path class="cls-5" d="M1495,1104l-.25-17.54v17.35a16.4,16.4,0,0,0-16.38,16.4H1354.87v.55h124.36S1477.44,1105.65,1495,1104Z" transform="translate(-1170.24 -1031.37)"/><path class="cls-5" d="M1478.35,1120.18a16.4,16.4,0,0,1,16.38-16.4v-17.35L1495,1104c-17.54,1.68-15.75,16.75-15.75,16.75H1191.75s1.78-15.07-15.76-16.75l.26-17.54v17.35a16.4,16.4,0,0,1,16.37,16.4h285.73Z" transform="translate(-1170.24 -1031.37)"/><path class="cls-5" d="M1494.72,1053.77V1072a3.75,3.75,0,0,1-3.75,3.76H1176.25v-22l-.24,21.49c0,1-.19,1.81.81,1.81h314.49c2.43,0,3.4-2,3.4-4.4Z" transform="translate(-1170.24 -1031.37)"/><path class="cls-5" d="M1498.4,1032.63a6,6,0,0,0-3.68-1.26H1176.26a6,6,0,0,0-3.68,1.26Z" transform="translate(-1170.24 -1031.37)"/><circle class="cls-6" cx="11.01" cy="11.04" r="5"/><g class="cls-7"><path class="cls-8" d="M1181.24,1038.77a5.81,5.81,0,0,1,4.88,2.65,5,5,0,0,0-9.74,0A5.84,5.84,0,0,1,1181.24,1038.77Z" transform="translate(-1170.24 -1031.37)"/></g><circle class="cls-9" cx="11.01" cy="83.8" r="5"/><g class="cls-7"><path class="cls-8" d="M1181.24,1111.52a5.79,5.79,0,0,1,4.88,2.66,5,5,0,0,0-9.74,0A5.82,5.82,0,0,1,1181.24,1111.52Z" transform="translate(-1170.24 -1031.37)"/></g><circle class="cls-10" cx="319.49" cy="11.04" r="5"/><g class="cls-7"><path class="cls-8" d="M1489.72,1038.77a5.81,5.81,0,0,1,4.88,2.65,5,5,0,0,0-9.74,0A5.84,5.84,0,0,1,1489.72,1038.77Z" transform="translate(-1170.24 -1031.37)"/></g><circle class="cls-11" cx="319.49" cy="83.8" r="5"/><g class="cls-7"><path class="cls-8" d="M1489.72,1111.52a5.79,5.79,0,0,1,4.88,2.66,5,5,0,0,0-9.74,0A5.82,5.82,0,0,1,1489.72,1111.52Z" transform="translate(-1170.24 -1031.37)"/></g><g class="cls-12"><polygon class="cls-13" points="296.87 0 289.39 0 285.46 6.01 293.4 6.01 296.87 0"/><polygon class="cls-13" points="271.94 44.4 264.28 44.4 260.42 50.42 268.36 50.42 271.94 44.4"/><polygon class="cls-13" points="246.91 88.8 239.25 88.8 235.4 94.81 243.33 94.81 246.91 88.8"/></g></svg>