<svg id="Warstwa_1" data-name="Warstwa 1" xmlns="http://www.w3.org/2000/svg" viewBox="0 0 657.47 657.47"><defs><style>.cls-1{fill:#6fc1e4;}</style></defs><title>by_date</title><rect class="cls-1" x="231.06" y="350.46" width="85.02" height="101.42"/><path class="cls-1" d="M-495.69-778.84h344.15a12.43,12.43,0,0,0,12.43-12.42,12.44,12.44,0,0,0-12.43-12.43h-32.41a11,11,0,0,1-11-11c0-13.76,0-32.22,0-48.68a18.49,18.49,0,0,0-18.48-18.47,18.48,18.48,0,0,0-18.47,18.48v48.67a11,11,0,0,1-11,11h-163a11,11,0,0,1-11-11c0-12,0-32.57,0-48a18.48,18.48,0,0,0-18.43-18.47h0a18.47,18.47,0,0,0-18.53,18.47v48a11,11,0,0,1-11,11h-30.89a12.43,12.43,0,0,0-12.42,12.43A12.42,12.42,0,0,0-495.69-778.84Z" transform="translate(653.58 996.87)"/><path class="cls-1" d="M-289.63-518.44h-21.56v43.49a13.16,13.16,0,0,1-13.16,13.16,13.16,13.16,0,0,1-13.15-13.16v-43.49h-85v43.49a13.16,13.16,0,0,1-13.16,13.16h-.23a13.16,13.16,0,0,1-13.16-13.16v-43.49h-50.11a13.16,13.16,0,0,1-13.16-13.16v-.24A13.16,13.16,0,0,1-499.18-545h50.11V-646.41h-50.11a13.16,13.16,0,0,1-13.16-13.16v-.24A13.16,13.16,0,0,1-499.18-673h50.11v-33.1a13.16,13.16,0,0,1,13.16-13.15h.23a13.16,13.16,0,0,1,13.16,13.15V-673h85v-33.1a13.15,13.15,0,0,1,13.15-13.15,13.16,13.16,0,0,1,13.16,13.15V-673h84.5v-33.1a13.16,13.16,0,0,1,13.16-13.15h.23a13.16,13.16,0,0,1,13.16,13.15V-673H-150a13.16,13.16,0,0,1,13.16,13.15v.24A13.16,13.16,0,0,1-150-646.41h-50.11V-627a123.57,123.57,0,0,1,33.8-4.68A123.43,123.43,0,0,1-121-623.08V-740.4H-527.69v299h257a123.12,123.12,0,0,1-19.36-66.49C-290.08-511.45-289.93-515-289.63-518.44Z" transform="translate(653.58 996.87)"/><path class="cls-1" d="M-115.56-996.87H-534.13c-65.7,0-119.45,53.75-119.45,119.45v418.57c0,65.7,53.75,119.45,119.45,119.45h418.57c65.7,0,119.45-53.75,119.45-119.45V-877.42C3.89-943.12-49.86-996.87-115.56-996.87Zm-50.78,612.72A123.17,123.17,0,0,1-234-404.29H-286.8q-119.76,0-239.5,0c-10.42,0-19.43-3.27-26.89-10.45-7-6.72-11.08-14.92-11.5-24.75,0-.94-.06-1.89-.06-2.84q0-186,0-372.06c0-14.12,6.12-24.95,17.53-32.89a31.46,31.46,0,0,1,18.09-5.4c12.13-.08,24.26,0,36.4,0h1.93v-2.08c0-9.29-.11-18.58.11-27.86.33-14.27,6.42-25.84,17.24-35a42.43,42.43,0,0,1,27.91-10.29c7.09,0,14.18-.11,21.27,0,21.66.4,41.22,18.06,43.89,39.59a73,73,0,0,1,.54,8.36c.06,8.49,0,17,0,25.46v1.69h110.91v-1.71c0-8.84-.16-17.68,0-26.51.45-20,10-34.24,27.69-43.12,5.8-2.9,12.13-3.84,18.6-3.82s13.18-.06,19.77.06c21.62.36,40.81,17.05,44.14,38.43a68.1,68.1,0,0,1,.71,9.68c.09,8.39,0,16.78,0,25.17v1.9h2c11.48,0,23,.19,34.45-.05,18.22-.37,34.15,13.81,37,30.73a46.45,46.45,0,0,1,.55,7.45q0,107.14,0,214.27A123.42,123.42,0,0,1-42.59-507.9,123.74,123.74,0,0,1-166.34-384.15Z" transform="translate(653.58 996.87)"/><path class="cls-1" d="M-226.69-646.41h-84.5V-545h26.76a124.13,124.13,0,0,1,57.74-71Z" transform="translate(653.58 996.87)"/><path class="cls-1" d="M-166.52-592.67a86.51,86.51,0,0,0-85.72,88.16c.86,46.13,38.42,83.82,84.55,84.83A86.36,86.36,0,0,0-97.85-452.6l-70-37.92a12.14,12.14,0,0,1-6.35-10.67v-63.57a10.51,10.51,0,0,1,10.51-10.5h0a10.51,10.51,0,0,1,10.51,10.5v60.84l65.35,35.43a86.23,86.23,0,0,0,8.59-40.22C-80.63-555.52-119.7-593.08-166.52-592.67Z" transform="translate(653.58 996.87)"/></svg>