<svg id="Warstwa_1" data-name="Warstwa 1" xmlns="http://www.w3.org/2000/svg" viewBox="0 0 657.47 657.47"><defs><style>.cls-1{fill:#6fc1e4;}</style></defs><title>by_price</title><path class="cls-1" d="M687.5-768.3a42.57,42.57,0,0,0-3,15.82q0,22.35,44.19,43.68-1.26-26.85-3.27-54.22A132.16,132.16,0,0,0,687.5-768.3Z" transform="translate(-417.41 911.05)"/><path class="cls-1" d="M814-511.22a69.17,69.17,0,0,0,5.36-27.87q0-35.89-61.26-65.27,1.39,39.42,4.21,80.34A234.21,234.21,0,0,0,814-511.22Z" transform="translate(-417.41 911.05)"/><path class="cls-1" d="M955.43-911H536.86c-65.7,0-119.45,53.75-119.45,119.45V-373c0,65.7,53.75,119.45,119.45,119.45H955.43c65.7,0,119.45-53.75,119.45-119.45V-791.6C1074.88-857.3,1021.13-911,955.43-911ZM609.7-555.65q35.4-4.77,75.06-22.35a183.26,183.26,0,0,0,43.68,37.66q1.75-39.17,2-77.07l-32.52-14.82Q634-661.34,634.05-713.32q0-44.92,38.12-75.81a207.22,207.22,0,0,1,48.74-28.62q-.75-7.79-1.5-15.82,21-7,47.65-21.09l2.81,1.51q-2,16.32-3.94,32.89,30.15,12.3,48.65,26.36,22.29,17.07,32.17,41.17l-.8,2.51q-34.83,4.51-72.67,21.34A73.65,73.65,0,0,0,760-744.7q-1.37,24.62-1.9,49.46l51.35,23.1q74.18,33.39,74.17,90.63,0,48.19-52,90.88-26.76,21.84-63,35.65.75,6.78,1.26,13.55-21.4,6.53-48,21.09l-2.51-1.5q1.76-17.32,3.26-34.15-67.29-28.36-114-97.16ZM797-332.63c-161.27,47.67-320.53,16.14-338.31-44A45.11,45.11,0,0,1,457.06-393a45.11,45.11,0,0,1-7.49-14.6c-12.93-43.75,39-99.81,133.69-146.62,3.62,10,10,19.58,15.39,28.77C512.88-483.84,460.29-434.92,457.06-393c35.75,46.88,169.51,51.52,316.7,8s256.94-120.11,261.46-178.89c-17.8-23.34-59.89-36.2-115.84-37.87-2.58-5-5.3-9.86-8.2-14.63a183.13,183.13,0,0,0-11.12-16.49c72.07.42,123.4,18.44,133.52,52.65a45.19,45.19,0,0,1,1.64,16.34,44.94,44.94,0,0,1,7.5,14.6C1060.5-489.1,958.28-380.29,797-332.63Z" transform="translate(-417.41 911.05)"/></svg>