<svg id="Warstwa_1" data-name="Warstwa 1" xmlns="http://www.w3.org/2000/svg" viewBox="0 0 237.46 237.46"><defs><style>.cls-1{fill:#64a4bf;}</style></defs><title>dao</title><polygon class="cls-1" points="86.83 184.44 80.05 171.29 73.27 184.44 58.12 186.55 69.08 196.78 66.5 211.24 80.05 204.41 93.6 211.24 91.02 196.78 101.98 186.55 86.83 184.44"/><path class="cls-1" d="M808.86,9.1H657.68a43.26,43.26,0,0,0-43.14,43.14V203.42a43.26,43.26,0,0,0,43.14,43.14H808.86A43.26,43.26,0,0,0,852,203.42V52.24A43.26,43.26,0,0,0,808.86,9.1ZM741.23,230.29H666.9a3.37,3.37,0,0,1-3.36-3.36V37.66a3.37,3.37,0,0,1,3.36-3.36H808.48a3.37,3.37,0,0,1,3.36,3.36v147c-6.83,9.86-46.92,7.3-46.92,7.3C761.17,204.17,752.14,226.76,741.23,230.29Zm10.92.15s11.34-3.21,19.64-30.94c0,0,24.49,3,40.27-7.49C812.06,192,788.93,223,752.15,230.44Z" transform="translate(-614.54 -9.1)"/><path class="cls-1" d="M690.17,96.58a13.28,13.28,0,0,1,14,13.69,20.34,20.34,0,0,1-2.21,9.43,8.82,8.82,0,0,1-3.29,3.73,9.41,9.41,0,0,1-4.87,1.22,16.26,16.26,0,0,1-5.08-.81,56.81,56.81,0,0,1-.63-9.3,87.18,87.18,0,0,1,1.44-13.24l-.33-.18a43.2,43.2,0,0,1-11.69,2.74,110.37,110.37,0,0,1,1.16,12.62,136.92,136.92,0,0,1-1.13,15.18l.29.18a43,43,0,0,1,11.67-2.75l6.3,2.75q8.49,0,14.32-9.49a23.64,23.64,0,0,0,3.48-12.58q0-11-7.45-17.48-6.33-5.49-15.93-5.49a23.74,23.74,0,0,0-12.08,2.89,43.21,43.21,0,0,1-2.75,11.7l.18.29Q683,96.58,690.17,96.58Z" transform="translate(-614.54 -9.1)"/><path class="cls-1" d="M743.61,86.8a43.14,43.14,0,0,1-11.69,2.75A180.34,180.34,0,0,1,716,131.66l.3.18a44.41,44.41,0,0,1,10.5-2.63q1-4.92,2.38-9.63,2.89-.3,7.64-.3,5.07,0,8.38.3A80.13,80.13,0,0,1,748,131.66l.3.18A43.23,43.23,0,0,1,760,129.09a162.74,162.74,0,0,1-16-42.11Zm-6.41,25.59q-3.76,0-5.61-.09a107.91,107.91,0,0,1,5.7-13,96.62,96.62,0,0,1,5.63,13C741.77,112.37,739.86,112.39,737.2,112.39Z" transform="translate(-614.54 -9.1)"/><path class="cls-1" d="M781.71,131.84h.3a28.59,28.59,0,0,0,11.83-7.4A21.44,21.44,0,0,0,800,109.2a20,20,0,0,0-5.93-14.76q-4.61-4.6-13.59-7.64h-.3a29.14,29.14,0,0,0-11.83,7.43,21.07,21.07,0,0,0-6.2,15.21,20.21,20.21,0,0,0,5.9,14.79Q772.58,128.78,781.71,131.84Zm-8.28-35q8.1.39,11.83,3.49,5.36,4.51,5.36,12.26a24.43,24.43,0,0,1-1.82,9.25q-8-.3-11.82-3.49-5.37-4.39-5.36-12.26A23.13,23.13,0,0,1,773.43,96.82Z" transform="translate(-614.54 -9.1)"/></svg>