<svg id="Warstwa_1" data-name="Warstwa 1" xmlns="http://www.w3.org/2000/svg" viewBox="0 0 237.46 237.46"><defs><style>.cls-1{fill:#64a4bf;}</style></defs><title>elemental</title><path class="cls-1" d="M1685.65,75.79c-15-13.11-34.37-23.25-55.36-22.62-.06,0-.19-.1-.25-.1-43.79.79-78.13,34.69-78.39,78.64-.13,21.33,8.19,40.49,23,55.6,14,14.29,32.42,21.74,52.12,23a82.77,82.77,0,0,1-34.08-17.45A67.93,67.93,0,0,1,1585,97.14a55.84,55.84,0,0,1,78.64-6.36,46.08,46.08,0,0,1,5.25,65,38.37,38.37,0,0,1-54,4.37,32.12,32.12,0,0,1-3.66-45.26,27.13,27.13,0,0,1,38.25-3.09,23.15,23.15,0,0,1,2.64,32.64,20,20,0,0,1-28.16,2.28,17.34,17.34,0,0,1-5.85-10.17c0,.19,0,.37,0,.56a17.48,17.48,0,0,0,6.14,12,23.84,23.84,0,0,0,33.57-2.72,31.59,31.59,0,0,0-3.61-44.51,41.34,41.34,0,0,0-58.2,4.7,53.42,53.42,0,0,0,6.1,75.31,68.11,68.11,0,0,0,50,16.11l1.31-.11c25.26-2.53,46-20.85,52.56-45.37a91.52,91.52,0,0,0,3-21.34c0-.6,0-1.31-.06-2.15C1708.47,115.78,1700.62,88.89,1685.65,75.79Z" transform="translate(-1511.46 -9.1)"/><path class="cls-1" d="M1705.78,9.1H1554.61a43.27,43.27,0,0,0-43.15,43.14V203.42a43.27,43.27,0,0,0,43.15,43.14h151.17a43.27,43.27,0,0,0,43.15-43.14V52.24A43.27,43.27,0,0,0,1705.78,9.1Zm-75.54,220.18s0,0-.08,0c-25.88-.47-50.43-10.11-68.78-28.62a96.44,96.44,0,0,1-28.49-69c.2-54.37,42.91-96.7,97.15-97.43l.26-.08c25.74.51,50.48,10.11,68.72,28.64s28.77,42.6,28.54,69C1727.09,186.22,1684.85,228.47,1630.24,229.28Z" transform="translate(-1511.46 -9.1)"/></svg>