<svg id="Warstwa_1" data-name="Warstwa 1" xmlns="http://www.w3.org/2000/svg" viewBox="0 0 237.46 237.46"><defs><style>.cls-1{fill:#64a4bf;}</style></defs><title>id</title><path class="cls-1" d="M513.6,9.1H362.42a43.26,43.26,0,0,0-43.14,43.14V203.42a43.26,43.26,0,0,0,43.14,43.14H513.6a43.26,43.26,0,0,0,43.14-43.14V52.24A43.26,43.26,0,0,0,513.6,9.1Zm-122,177.58A130,130,0,0,0,356.24,195l-.9-.54a534.69,534.69,0,0,0,4-65.23,540.85,540.85,0,0,0-3.69-62,130.19,130.19,0,0,0,35.32-8.29l.9.54a531.17,531.17,0,0,0-4.06,65.05A501.06,501.06,0,0,0,391.56,186.68Zm132.12-20.37Q506.06,195,480.44,195l-19.05-8.28A129.62,129.62,0,0,0,426.15,195l-.9-.54q3.42-28.83,3.43-45.86,0-11.61-3.52-38.11a129.8,129.8,0,0,0,35.33-8.29l1,.55q-4.32,26.12-4.32,40A173.22,173.22,0,0,0,459,170.82a49.47,49.47,0,0,0,15.35,2.43,28.34,28.34,0,0,0,14.71-3.69A26.64,26.64,0,0,0,499,158.29a61.25,61.25,0,0,0,6.68-28.47q0-18.73-13.45-31.26-10.92-10.09-28.71-10.09-21.71,0-44.23,15.41l-.54-.9a130.56,130.56,0,0,0,8.29-35.32q15-8.74,36.48-8.74,29,0,48.13,16.58,22.5,19.64,22.5,52.79A71.56,71.56,0,0,1,523.68,166.31Z" transform="translate(-319.28 -9.1)"/></svg>