<svg id="Warstwa_1" data-name="Warstwa 1" xmlns="http://www.w3.org/2000/svg" viewBox="0 0 237.46 237.46"><defs><style>.cls-1{fill:#64a4bf;}</style></defs><title>rarity</title><path class="cls-1" d="M1935.4,129.79a29.31,29.31,0,0,0-10.22-22.89q-10.23-9.08-27.39-9.07-12.69,0-21.61,5.17a76.65,76.65,0,0,1-4.91,20.92l.32.53q13.35-9.12,26.2-9.12,10.21,0,15.56,5.12a15.55,15.55,0,0,1,5.19,11.58,15.2,15.2,0,0,1-4.12,11,14.6,14.6,0,0,1-11,4.43,30.62,30.62,0,0,1-9.41-1.6,175,175,0,0,1,2.51-22.14l-.54-.32a77,77,0,0,1-20.92,4.91q2.63,15.69,2.62,22.57a243.66,243.66,0,0,1-2,27.16l.53.32a73.13,73.13,0,0,1,20.34-4.91q-1.34-7.91-2-14.73a50.59,50.59,0,0,0,8.93.85,116,116,0,0,1,13.8,18.47l.53.32a76.14,76.14,0,0,1,20.87-4.91,97.77,97.77,0,0,1-17.82-18.14,30.59,30.59,0,0,0,6.18-4.81A28.15,28.15,0,0,0,1935.4,129.79Z" transform="translate(-1783.54 -9.1)"/><path class="cls-1" d="M1977.86,9.1H1826.68a43.26,43.26,0,0,0-43.14,43.14V203.42a43.26,43.26,0,0,0,43.14,43.14h151.18A43.26,43.26,0,0,0,2021,203.42V52.24A43.26,43.26,0,0,0,1977.86,9.1ZM1954.5,153.15,1966.84,225l-64.57-33.94L1837.7,225,1850,153.15l-52.23-50.92L1870,91.74l32.28-65.41,32.28,65.41,72.19,10.49Z" transform="translate(-1783.54 -9.1)"/></svg>