<svg id="Warstwa_1" data-name="Warstwa 1" xmlns="http://www.w3.org/2000/svg" viewBox="0 0 237.46 237.46"><defs><style>.cls-1{fill:#64a4bf;}</style></defs><title>respect</title><circle class="cls-1" cx="1077.54" cy="193.66" r="8.48" transform="translate(-931.04 243.65) rotate(-13.28)"/><circle class="cls-1" cx="1037.78" cy="193.66" r="8.48" transform="translate(-932.1 234.51) rotate(-13.28)"/><circle class="cls-1" cx="82.66" cy="184.56" r="8.48"/><rect class="cls-1" x="24.74" y="141.98" width="8.66" height="8.66" rx="2.18"/><rect class="cls-1" x="36.86" y="141.98" width="8.66" height="8.66" rx="2.18"/><path class="cls-1" d="M1109.69,9.1H958.51a43.27,43.27,0,0,0-43.14,43.14V203.42a43.27,43.27,0,0,0,43.14,43.14h151.18a43.26,43.26,0,0,0,43.14-43.14V52.24A43.26,43.26,0,0,0,1109.69,9.1ZM937.73,214l-.11-15.28a3.88,3.88,0,0,1,3.88-3.9h6.2L954.32,214Zm178.09-2.42a84.84,84.84,0,0,1-8.93,2.42H961.14c-2.45-6.74-4.61-13.21-9.17-24.16L937.6,177h184.78c1.9,6.16,3.95,13.39,4,19.91A15.42,15.42,0,0,1,1115.82,211.58Zm3.56-48.26a7.56,7.56,0,0,0,.12,3.72H935.22c-.63-5-1.23-10.46-1.23-11.26V144.65h45.44V155.3A8.38,8.38,0,0,0,985.6,158h59.51V137.34H979.59q30.39-46.35,0-92.69h65.52V37.83a3.53,3.53,0,0,1,3.52-3.53h6.2a3.54,3.54,0,0,1,3.53,3.53v6.82h46.34q24.48,46.35,0,92.69h-46.34V158h33.87l46.56-15.93S1123.79,151.1,1119.38,163.32Z" transform="translate(-915.37 -9.1)"/><rect class="cls-1" x="48.97" y="141.98" width="8.66" height="8.66" rx="2.18"/></svg>