<svg id="Warstwa_1" data-name="Warstwa 1" xmlns="http://www.w3.org/2000/svg" viewBox="0 0 237.46 237.46"><defs><style>.cls-1{fill:#64a4bf;}</style></defs><title>rum</title><path class="cls-1" d="M203.42,9.1H52.25A43.27,43.27,0,0,0,9.1,52.24V203.42a43.27,43.27,0,0,0,43.15,43.14H203.42a43.27,43.27,0,0,0,43.15-43.14V52.24A43.27,43.27,0,0,0,203.42,9.1ZM114.55,53.05V219.44H98V200.7H60.67V193a40.59,40.59,0,0,1,6.14-1.71,24.56,24.56,0,0,0,5.31-1.61q5.26-2.3,5.26-8.73V73q0-6.56-5.26-8.84a24.56,24.56,0,0,0-5.31-1.61,40.59,40.59,0,0,1-6.14-1.71V53.05H98V34.3h16.52Zm28.31,166.39H126.33V166c0-1.87,3-2.29,3.6-.51,3.47,12.55,7.24,24.24,12.08,32.88a13.78,13.78,0,0,1,.85,4.74Zm68.52-32q-9.69,15.48-32.24,15.48-20.22,0-28.62-16.93a103.66,103.66,0,0,1-6.66-17.62q-2.81-9.81-4.91-15.12-4.8-12.15-12.62-17.45V120.48q13.9-1.14,19.86-6.65,7-6.64,7-21,0-16.31-6.42-22.86-6-6.23-20.45-6.85V34.3h16.53V53.05h-2.74q27.33,0,41.82,11.11Q195,74.14,195,90.66q0,24.95-29.09,33.15A91.38,91.38,0,0,1,144.67,127V128q10.88,1.56,15.78,4.58,11,6.75,17.05,20.05,2.12,4.47,4,9.14t3.8,9.15a64.12,64.12,0,0,0,4,8q4.68,7.8,9.58,7.79a5.46,5.46,0,0,0,4.38-2.54,29.7,29.7,0,0,1,3.22-3.74,4.15,4.15,0,0,1,2.92-1.2,10,10,0,0,1,2,.11Z" transform="translate(-9.1 -9.1)"/></svg>