<svg id="Warstwa_1" data-name="Warstwa 1" xmlns="http://www.w3.org/2000/svg" viewBox="0 0 237.46 237.46"><defs><style>.cls-1{fill:#64a4bf;}</style></defs><title>voodoo</title><path class="cls-1" d="M1382.58,92.25a8.4,8.4,0,0,0-11.64-.61c-3.41,2.8-3.52,8.45-.61,11.63,2.07,2.26,4.05,4.61,5.9,7.06.47.61.92,1.23,1.37,1.85.05.06.8,1.17.85,1.22.74,1.13,1.48,2.26,2.18,3.42.42.7.83,1.4,1.24,2.11a177.12,177.12,0,0,0-28.8,15.56c-3.83,2.6-5.63,6.61-3.59,11.08,1.69,3.69,7.51,6,11.08,3.58a177.42,177.42,0,0,1,28.26-15.34c0,.11.07.18.08.22.2.56.39,1.13.58,1.7q.7,2.19,1.32,4.41,1.15,4.26,2,8.61c.24,1.38.46,2.77.65,4.16.11.76.2,1.53.29,2.29,0,.22.11,1.22.13,1.41.21,2.91.3,5.83.25,8.75a8.41,8.41,0,0,0,7.9,8.56,8.31,8.31,0,0,0,8.56-7.9,107.54,107.54,0,0,0-6.56-38.38l2-.76q3.79-1.42,7.6-2.8l6.91-2.48c4.35-1.55,7.12-5,6.27-9.81-.7-4-5.73-7.73-9.8-6.28-6.59,2.35-13.19,4.7-19.75,7.19A105.61,105.61,0,0,0,1382.58,92.25Z" transform="translate(-1219.97 -9.1)"/><path class="cls-1" d="M1288.9,116q3-3.24,6.28-6.2c1.14-1,2.3-2,3.49-3l1.4-1.13.19-.13a176.88,176.88,0,0,1,15.52,28.15c1.7,4,7.85,5.16,11.27,3,4.13-2.67,4.77-7,3-11.27a177.47,177.47,0,0,0-15.86-28.63c.72-.38,1.45-.75,2.18-1.11,1.21-.59,2.44-1.15,3.67-1.7l1.38-.57c.71-.28,1.43-.56,2.15-.82,2.88-1.07,5.81-2,8.78-2.77,4.16-1.11,7.11-5.92,5.75-10.13a8.39,8.39,0,0,0-10.13-5.75,105.42,105.42,0,0,0-23.34,9.34c-4.18-5.63-8.48-11.17-12.76-16.7-2.65-3.42-8.89-3-11.64,0-3.34,3.63-2.83,8,0,11.65,1.65,2.13,2.6,3.35,4.48,5.81q2.46,3.21,4.89,6.46l1.27,1.71a107.7,107.7,0,0,0-26.22,28.79c-2.27,3.67-.9,9.23,3,11.27a8.39,8.39,0,0,0,11.26-3q2.31-3.72,4.93-7.23c.12-.14.74-.94.88-1.11q.72-.9,1.47-1.77C1287,118,1287.94,117,1288.9,116Z" transform="translate(-1219.97 -9.1)"/><path class="cls-1" d="M1372,192.75l-1.66-.06a37.53,37.53,0,0,0-2.17-10.47c-1-2.76-4.63-4.53-7.43-4a4.42,4.42,0,0,0-3.28,6.14,26.49,26.49,0,0,1,1.46,7.37l-1.68-.22c-1.34-.19-2.28-.34-4-.65-4.46-.81-8.91-1.86-13.32-3.12a44.05,44.05,0,0,0,.57-15.79,6.81,6.81,0,0,0-6.36-5.4c-3-.12-5.45,2.15-5.06,4.94a36.77,36.77,0,0,1-.35,12.54l-1.16-.44-.56-.21-.75-.31-2.15-.9c-1.22-.52-2.44-1.06-3.65-1.62q-6-2.76-11.68-6a44.93,44.93,0,0,0,2.92-10.35c.44-2.77-1.76-5.51-4.84-6.48s-6.11.8-6.52,3.39a38.25,38.25,0,0,1-1.77,6.95c-2.55-1.8-5-3.7-7.75-5.93-2.48-2-6.07-2.33-8.09-.42s-1.64,5.28.82,7.31q5,4.11,10.44,7.82a39.15,39.15,0,0,1-6.3,6.88c-2.06,1.79-1.52,5.28.82,7.31s6,2.19,8.08.41a45.2,45.2,0,0,0,7.46-8.26,150.69,150.69,0,0,0,21.31,10.16,29.09,29.09,0,0,1-3.26,4.79c-1.72,2.07-1.78,5.05.82,7.31,2.23,1.93,6.36,2.47,8.08.41a43.4,43.4,0,0,0,5.64-8.67,147.81,147.81,0,0,0,20.51,4.52,26.88,26.88,0,0,1-2.61,4.53c-1.63,2.24.41,5.68,2.93,7.15a5.64,5.64,0,0,0,7.57-1.54,27.39,27.39,0,0,0,4.26-8.92c1.33.07,2.66.13,4,.16,3.09.08,5.42-2.1,5.06-4.94A6.79,6.79,0,0,0,1372,192.75Z" transform="translate(-1219.97 -9.1)"/><path class="cls-1" d="M1414.29,9.1H1263.12A43.27,43.27,0,0,0,1220,52.24V203.42a43.27,43.27,0,0,0,43.15,43.14h151.17a43.27,43.27,0,0,0,43.15-43.14V52.24A43.27,43.27,0,0,0,1414.29,9.1Zm-7.43,192.74-4.79,4.16a98,98,0,0,1-131-6.78l-4.94-5.33a98,98,0,0,1-9.5-114.79l2.86-4.42a98,98,0,0,1,140.08-22.74l5.61,4.6a97.95,97.95,0,0,1,1.73,145.3Z" transform="translate(-1219.97 -9.1)"/></svg>